<?xml version="1.0" encoding="UTF-8"?>
<svg id="Layer_1" xmlns="http://www.w3.org/2000/svg" version="1.1" viewBox="0 0 1192.38 253.85">
  <!-- Generator: Adobe Illustrator 30.5.1, SVG Export Plug-In . SVG Version: 2.1.4 Build 3)  -->
  <defs>
    <style>
      .st0 {
        fill: #fff;
      }

      .st1 {
        fill: none;
      }

      .st2 {
        fill: #878686;
      }

      .st3 {
        stroke: #000;
        stroke-miterlimit: 10;
      }

      .st3, .st4 {
        fill: #680009;
      }

      .st5 {
        fill: #ff8447;
      }

      .st6 {
        fill: #706161;
      }
    </style>
  </defs>
  <g>
    <path class="st2" d="M69.15,43.59h1097.91c13.43,0,24.32,9.07,24.32,20.23v168.51c0,11.17-10.91,20.23-24.32,20.23H69.15V43.59h0Z"/>
    <path d="M1166.86,253.56H67.31V42.59h1099.54c14.09,0,25.54,9.52,25.54,21.23v168.51c0,11.71-11.45,21.23-25.54,21.23h.01ZM69.71,251.56h1097.13c12.75,0,23.13-8.63,23.13-19.23V63.82c0-10.6-10.38-19.23-23.13-19.23H69.71v206.97Z"/>
  </g>
  <g>
    <path d="M342.33,132.03c-3.36-13.64-12.65-24.94-23.17-34.22-13.01-11.47-27.53-20.4-43.22-28-22.36-10.6-45.61-18.15-69.81-23.34-12.86-2.76-25.33-4.67-38.49-5.58L194.62,2.27c.44-.63.27-1.5-.1-1.85-.23-.21-.71-.39-1.37-.42l-60.53,1.03-28.76,37.35-97.58-2.44L0,88.35l68.89,165.5,175.05-10.95c14.97-.94,29.36-2.81,43.22-8.26,15-5.41,33.19-16.78,38.01-32.17l15.85-50.51c2.16-6.89,2.98-13.11,1.29-19.94h.02ZM133.94,3.62l57.05-.94-63.62,91.16-64.86,2.94L133.94,3.62ZM101.83,41.04l-44.05,57.53,129.22,89.28-105.85,4.02-26.62-56.9L9.68,38.71l92.15,2.33ZM2.79,87.85l5.59-45.38,39.92,85.45,30.58,65.4-9.65,54.3L2.79,87.85ZM322.37,202.67c-5.71,13.16-17.81,21.55-30.72,27.26-12.27,5.42-25.03,8.37-38.54,9.58l-140.71,8.92-40.85,2.52,9.87-56.37,47.66-1.84,121.53-4.58c10.62-.21,20.5-.73,30.87-2.29,19.4-2.97,39.3-8.92,53.28-23.35l-12.37,40.14h-.02ZM334.5,157.99c-4.29,5.8-9.74,10.16-16.12,13.6-19.17,10.35-40.82,12.78-62.63,13.73l-125.78-90.36,35.81-51.46c8.29.43,16.01,1.27,24.28,2.69,27.34,4.46,53.67,12.16,79.03,23.33,15.31,6.9,29.47,15.2,42.62,25.51,19.12,15,39.38,40.53,22.79,62.96Z"/>
    <path class="st6" d="M281.46,185.88c-10.36,1.56-20.24,2.08-30.87,2.29l-121.53,4.58-47.66,1.84-9.87,56.37,40.85-2.52,140.71-8.92c13.5-1.21,26.26-4.16,38.54-9.58,12.91-5.71,25.01-14.1,30.72-27.26l12.37-40.14c-13.98,14.44-33.87,20.38-53.28,23.35h.02Z"/>
    <polygon class="st2" points="81.15 191.87 187 187.85 57.78 98.57 101.83 41.04 9.68 38.71 54.53 134.96 81.15 191.87"/>
    <polygon class="st5" points="48.3 127.92 8.38 42.47 2.79 87.85 69.23 247.62 78.88 193.32 48.3 127.92"/>
    <path class="st2" d="M311.71,95.03c-13.15-10.32-27.3-18.61-42.62-25.51-25.36-11.17-51.69-18.87-79.03-23.33-8.27-1.41-15.99-2.25-24.28-2.69l-35.81,51.46,125.78,90.36c21.81-.95,43.46-3.37,62.63-13.73,6.37-3.44,11.83-7.8,16.12-13.6,16.59-22.43-3.67-47.96-22.79-62.96Z"/>
    <polygon class="st4" points="127.37 93.85 190.99 2.68 133.94 3.62 62.51 96.79 127.37 93.85"/>
  </g>
  <g>
    <path class="st3" d="M429.16,122.71l54.48,54.47h-44.66l-32.15-32.14-14.03,14.03v17.92h-31.58v-30.34l-.34-.34.34-.34v-77.76h31.57v46.18l46.23-46.23h44.66l-54.52,54.52v.03Z"/>
    <path class="st3" d="M520.46,68.1v109.17h-31.58v-109.17s31.58,0,31.58,0Z"/>
    <path class="st3" d="M653.61,177.18h-35.94l-51.28-63.95v63.86h-31.58v-108.9h35.93l51.29,63.97v-63.9h31.58v108.93h0Z"/>
    <path class="st3" d="M782.63,122.67c0,7.34-1.44,14.47-4.28,21.2-2.74,6.49-6.67,12.3-11.66,17.3s-10.81,8.91-17.3,11.66c-6.72,2.84-13.86,4.28-21.19,4.28h-60.24v-108.87h60.24c7.34,0,14.47,1.44,21.19,4.28,6.49,2.74,12.3,6.67,17.3,11.66s8.91,10.81,11.66,17.3c2.84,6.72,4.28,13.86,4.28,21.19ZM751.04,122.67c0-12.61-10.25-22.86-22.86-22.86h-28.67v45.72h28.67c12.61,0,22.86-10.25,22.86-22.86Z"/>
    <path class="st3" d="M900.52,145.55v31.58h-108.95v-108.87h108.84v31.58h-77.25v7.07h77.27v31.58h-77.27v7.07h77.37,0Z"/>
    <path class="st3" d="M1108.64,122.71l54.48,54.47h-44.66l-32.15-32.14-14.03,14.03v17.92h-31.57v-30.34l-.34-.34.34-.34v-77.76h31.57v46.18l46.23-46.23h44.66l-54.52,54.52v.03Z"/>
    <g>
      <path class="st1" d="M968.92,99.81c-12.61,0-22.86,10.25-22.86,22.86s10.25,22.86,22.86,22.86h60.23v-45.72h-60.23Z"/>
      <path class="st3" d="M946.06,122.67c0-12.61,10.25-22.86,22.86-22.86h60.23v-31.57h-60.24c-7.34,0-14.47,1.44-21.19,4.28-6.49,2.74-12.3,6.67-17.3,11.66-5,5-8.91,10.81-11.66,17.3-2.84,6.72-4.28,13.86-4.28,21.19s1.44,14.47,4.28,21.2c2.74,6.49,6.67,12.3,11.66,17.3,5,5,10.81,8.91,17.3,11.66,6.72,2.84,13.86,4.28,21.19,4.28h60.24v-31.58h-60.23c-12.61,0-22.86-10.25-22.86-22.86Z"/>
    </g>
  </g>
  <g>
    <path class="st0" d="M371.28,230.47c-3.86,0-6.73-.86-8.59-2.57-1.87-1.72-2.86-4.42-2.99-8.11-.02-.54.12-.96.44-1.28.31-.31.73-.47,1.25-.47s.93.15,1.23.45c.3.3.47.71.52,1.23.09,2.72.73,4.62,1.94,5.7,1.21,1.08,3.28,1.62,6.22,1.62h9.32c3.06,0,5.2-.6,6.39-1.8,1.2-1.2,1.8-3.31,1.8-6.33s-.6-5.2-1.8-6.39c-1.2-1.2-3.33-1.8-6.39-1.8h-8.87c-3.8,0-6.58-.88-8.35-2.65s-2.65-4.54-2.65-8.32.88-6.55,2.64-8.32c1.76-1.77,4.53-2.66,8.3-2.66h9.06c3.63,0,6.32.81,8.08,2.43,1.76,1.62,2.7,4.17,2.83,7.64.04.52-.09.93-.4,1.25-.31.31-.74.47-1.28.47-.5,0-.9-.15-1.2-.45-.3-.3-.47-.71-.52-1.23-.09-2.48-.69-4.22-1.81-5.21-1.12-.99-3.02-1.49-5.7-1.49h-9.06c-2.83,0-4.79.56-5.89,1.67-1.1,1.11-1.65,3.08-1.65,5.91s.56,4.8,1.67,5.91c1.11,1.11,3.09,1.67,5.94,1.67h8.87c4.01,0,6.95.93,8.8,2.8,1.86,1.87,2.78,4.8,2.78,8.79s-.93,6.92-2.78,8.77c-1.86,1.86-4.79,2.78-8.8,2.78h-9.32Z"/>
    <path class="st0" d="M405.14,230.5c-.52,0-.93-.16-1.25-.47s-.47-.73-.47-1.25v-38.29c0-.52.16-.93.47-1.25s.73-.47,1.25-.47.93.16,1.23.47.45.73.45,1.25v17.16h27.16v-17.16c0-.52.15-.93.45-1.25.3-.31.71-.47,1.23-.47s.93.16,1.25.47.47.73.47,1.25v38.29c0,.52-.16.93-.47,1.25s-.73.47-1.25.47-.93-.16-1.23-.47c-.3-.31-.45-.73-.45-1.25v-17.74h-27.16v17.74c0,.52-.15.93-.45,1.25s-.71.47-1.23.47Z"/>
    <path class="st0" d="M462.11,230.5c-4.68,0-8.1-1.08-10.26-3.24-2.16-2.16-3.24-5.58-3.24-10.26v-14.76c0-4.73,1.08-8.16,3.24-10.31,2.16-2.15,5.56-3.2,10.2-3.16h7.83c4.68,0,8.1,1.08,10.25,3.24,2.15,2.16,3.22,5.58,3.22,10.26v14.73c0,4.68-1.07,8.1-3.22,10.26-2.15,2.16-5.56,3.24-10.25,3.24h-7.77ZM462.11,227.1h7.77c2.48,0,4.46-.32,5.92-.97,1.47-.65,2.52-1.7,3.17-3.17.65-1.47.97-3.45.97-5.96v-14.73c0-2.48-.32-4.45-.97-5.92-.65-1.47-1.71-2.53-3.17-3.19-1.47-.66-3.44-.99-5.92-.99h-7.83c-2.48-.02-4.45.29-5.91.92s-2.51,1.69-3.16,3.17c-.65,1.48-.97,3.47-.97,5.97v14.76c0,2.5.32,4.49.97,5.96s1.7,2.53,3.17,3.17c1.47.65,3.45.97,5.96.97Z"/>
    <path class="st0" d="M502.22,230.5c-.82,0-1.37-.44-1.65-1.33l-12.4-38.13c-.17-.5-.11-1,.19-1.51s.78-.76,1.42-.76c.37,0,.7.1.99.31.29.21.49.51.6.92l11.52,35.41h-.94l10.91-35.32c.15-.47.42-.82.79-1.04.38-.21.77-.32,1.18-.32.43,0,.84.11,1.23.32.39.22.64.56.74,1.04l10.91,35.32h-.94l11.52-35.41c.15-.41.36-.72.63-.92.27-.2.59-.31.96-.31.73,0,1.24.25,1.5.75.27.5.32,1,.15,1.52l-12.43,38.13c-.28.89-.87,1.33-1.78,1.33h-.13c-.93,0-1.52-.44-1.78-1.33l-11.1-35.64h.94l-11.1,35.64c-.15.54-.39.9-.71,1.07-.32.17-.73.26-1.23.26Z"/>
    <path class="st0" d="M577.48,230.5c-4.68,0-8.1-1.08-10.26-3.24-2.16-2.16-3.24-5.58-3.24-10.26v-14.73c0-4.73,1.07-8.16,3.22-10.29,2.15-2.14,5.55-3.21,10.21-3.21h7.83c3.97,0,6.93.83,8.87,2.48s3.01,4.3,3.21,7.95c.06.58-.05,1.02-.34,1.33-.29.3-.72.45-1.28.45-1.08,0-1.67-.57-1.78-1.71-.15-2.68-.89-4.53-2.2-5.55-1.32-1.02-3.48-1.54-6.48-1.54h-7.83c-2.48,0-4.46.32-5.92.95-1.47.64-2.52,1.69-3.16,3.17s-.95,3.47-.95,5.97v14.73c0,2.5.32,4.49.97,5.96.65,1.47,1.7,2.53,3.17,3.17,1.47.65,3.45.97,5.96.97h7.77c3,0,5.16-.51,6.48-1.54,1.31-1.02,2.05-2.88,2.2-5.55.11-1.14.7-1.72,1.78-1.72.56,0,.99.16,1.28.47s.4.75.34,1.31c-.19,3.65-1.26,6.3-3.21,7.95-1.94,1.65-4.9,2.48-8.87,2.48h-7.77Z"/>
    <path class="st0" d="M620.57,230.5c-4.68,0-8.1-1.08-10.26-3.24-2.16-2.16-3.24-5.58-3.24-10.26v-14.76c0-4.73,1.08-8.16,3.24-10.31,2.16-2.15,5.56-3.2,10.2-3.16h7.83c4.68,0,8.1,1.08,10.25,3.24,2.15,2.16,3.22,5.58,3.22,10.26v14.73c0,4.68-1.07,8.1-3.22,10.26-2.15,2.16-5.56,3.24-10.25,3.24h-7.77ZM620.57,227.1h7.77c2.48,0,4.46-.32,5.92-.97,1.47-.65,2.53-1.7,3.17-3.17.65-1.47.97-3.45.97-5.96v-14.73c0-2.48-.32-4.45-.97-5.92-.65-1.47-1.7-2.53-3.17-3.19-1.47-.66-3.44-.99-5.92-.99h-7.83c-2.48-.02-4.45.29-5.91.92s-2.51,1.69-3.16,3.17c-.65,1.48-.97,3.47-.97,5.97v14.76c0,2.5.32,4.49.97,5.96.65,1.47,1.7,2.53,3.17,3.17,1.47.65,3.45.97,5.96.97Z"/>
    <path class="st0" d="M654.75,230.5c-1.14,0-1.71-.57-1.71-1.72v-38.29c0-1.14.57-1.72,1.71-1.72.6,0,1.19.33,1.75,1l27.42,35.22h-.78v-34.51c0-1.14.57-1.72,1.71-1.72s1.68.57,1.68,1.72v38.29c0,1.15-.56,1.72-1.68,1.72-.63,0-1.21-.33-1.75-1l-27.45-35.22h.78v34.51c0,1.15-.56,1.72-1.68,1.72Z"/>
    <path class="st0" d="M710.98,230.53c-.52,0-.93-.15-1.25-.45-.31-.3-.47-.71-.47-1.23v-36.71h-13.76c-.52,0-.93-.15-1.25-.45-.31-.3-.47-.71-.47-1.23s.16-.93.47-1.25.73-.47,1.25-.47h30.95c.52,0,.93.16,1.23.47.3.31.45.73.45,1.25s-.15.93-.45,1.23-.71.45-1.23.45h-13.79v36.71c0,.5-.16.9-.47,1.21-.31.31-.72.47-1.21.47Z"/>
    <path class="st0" d="M763.61,230.59c-.47.26-.91.35-1.31.26-.4-.09-.74-.36-1.02-.81l-10.62-16.9h-11.88v15.63c0,1.15-.56,1.72-1.68,1.72s-1.71-.57-1.71-1.72v-38.29c0-1.14.57-1.72,1.71-1.72h15.15c3.69,0,6.48.95,8.37,2.85s2.83,4.69,2.83,8.38v1.94c0,3.26-.75,5.82-2.23,7.67-1.49,1.86-3.69,2.99-6.6,3.4l9.55,15.21c.6.99.42,1.78-.55,2.36ZM738.79,209.75h13.47c2.72,0,4.7-.62,5.94-1.86,1.24-1.24,1.86-3.22,1.86-5.94v-1.94c0-2.74-.62-4.73-1.86-5.97s-3.22-1.86-5.94-1.86h-13.47v17.58Z"/>
    <path class="st0" d="M786.4,230.5c-4.68,0-8.1-1.08-10.26-3.24-2.16-2.16-3.24-5.58-3.24-10.26v-14.76c0-4.73,1.08-8.16,3.24-10.31,2.16-2.15,5.56-3.2,10.2-3.16h7.83c4.68,0,8.1,1.08,10.25,3.24,2.15,2.16,3.22,5.58,3.22,10.26v14.73c0,4.68-1.07,8.1-3.22,10.26-2.15,2.16-5.56,3.24-10.25,3.24h-7.77ZM786.4,227.1h7.77c2.48,0,4.46-.32,5.92-.97,1.47-.65,2.53-1.7,3.17-3.17.65-1.47.97-3.45.97-5.96v-14.73c0-2.48-.32-4.45-.97-5.92-.65-1.47-1.7-2.53-3.17-3.19-1.47-.66-3.44-.99-5.92-.99h-7.83c-2.48-.02-4.45.29-5.91.92s-2.51,1.69-3.16,3.17c-.65,1.48-.97,3.47-.97,5.97v14.76c0,2.5.32,4.49.97,5.96.65,1.47,1.7,2.53,3.17,3.17,1.47.65,3.45.97,5.96.97Z"/>
    <path class="st0" d="M820.59,230.5c-1.14,0-1.71-.57-1.71-1.72v-38.29c0-1.14.57-1.72,1.71-1.72s1.68.57,1.68,1.72v36.61h19.68c1.14,0,1.71.56,1.71,1.68s-.57,1.72-1.71,1.72h-21.37Z"/>
    <path class="st0" d="M878.21,230.47c-3.86,0-6.73-.86-8.59-2.57-1.87-1.72-2.87-4.42-2.99-8.11-.02-.54.12-.96.44-1.28s.73-.47,1.25-.47.93.15,1.23.45c.3.3.47.71.52,1.23.09,2.72.73,4.62,1.94,5.7,1.21,1.08,3.28,1.62,6.21,1.62h9.32c3.06,0,5.19-.6,6.39-1.8,1.2-1.2,1.8-3.31,1.8-6.33s-.6-5.2-1.8-6.39-3.33-1.8-6.39-1.8h-8.87c-3.8,0-6.58-.88-8.35-2.65-1.77-1.77-2.65-4.54-2.65-8.32s.88-6.55,2.64-8.32c1.76-1.77,4.53-2.66,8.3-2.66h9.06c3.63,0,6.32.81,8.08,2.43,1.76,1.62,2.7,4.17,2.83,7.64.04.52-.09.93-.41,1.25-.31.31-.74.47-1.28.47-.5,0-.9-.15-1.2-.45-.3-.3-.48-.71-.52-1.23-.09-2.48-.69-4.22-1.81-5.21-1.12-.99-3.02-1.49-5.7-1.49h-9.06c-2.83,0-4.79.56-5.89,1.67s-1.65,3.08-1.65,5.91.56,4.8,1.67,5.91,3.09,1.67,5.94,1.67h8.87c4.01,0,6.95.93,8.8,2.8,1.86,1.87,2.78,4.8,2.78,8.79s-.93,6.92-2.78,8.77-4.79,2.78-8.8,2.78h-9.32Z"/>
    <path class="st0" d="M922.97,230.5c-4.68,0-8.1-1.08-10.26-3.24-2.16-2.16-3.24-5.58-3.24-10.26v-14.76c0-4.73,1.08-8.16,3.24-10.31,2.16-2.15,5.56-3.2,10.2-3.16h7.83c4.68,0,8.1,1.08,10.25,3.24,2.15,2.16,3.22,5.58,3.22,10.26v14.73c0,4.68-1.07,8.1-3.22,10.26-2.15,2.16-5.56,3.24-10.25,3.24h-7.77ZM922.97,227.1h7.77c2.48,0,4.46-.32,5.92-.97,1.47-.65,2.53-1.7,3.17-3.17.65-1.47.97-3.45.97-5.96v-14.73c0-2.48-.32-4.45-.97-5.92-.65-1.47-1.7-2.53-3.17-3.19-1.47-.66-3.44-.99-5.92-.99h-7.83c-2.48-.02-4.45.29-5.91.92s-2.51,1.69-3.16,3.17c-.65,1.48-.97,3.47-.97,5.97v14.76c0,2.5.32,4.49.97,5.96.65,1.47,1.7,2.53,3.17,3.17,1.47.65,3.45.97,5.96.97Z"/>
    <path class="st0" d="M957.16,230.5c-1.14,0-1.71-.57-1.71-1.72v-38.29c0-1.14.57-1.72,1.71-1.72s1.68.57,1.68,1.72v36.61h19.68c1.14,0,1.71.56,1.71,1.68s-.57,1.72-1.71,1.72h-21.37Z"/>
    <path class="st0" d="M1000.99,230.5c-4.68,0-8.1-1.08-10.26-3.24-2.16-2.16-3.24-5.58-3.24-10.26v-26.51c0-.52.16-.93.47-1.25.31-.31.73-.47,1.25-.47s.93.16,1.23.47c.3.31.45.73.45,1.25v26.51c0,2.5.32,4.49.97,5.96.65,1.47,1.7,2.53,3.17,3.17,1.47.65,3.45.97,5.96.97h7.77c2.48,0,4.46-.32,5.92-.97,1.47-.65,2.52-1.7,3.17-3.17s.97-3.45.97-5.96v-26.51c0-.52.16-.93.47-1.25s.73-.47,1.25-.47.93.16,1.23.47c.3.31.45.73.45,1.25v26.51c0,4.68-1.07,8.1-3.22,10.26s-5.56,3.24-10.25,3.24h-7.77Z"/>
    <path class="st0" d="M1046.34,230.53c-.52,0-.93-.15-1.25-.45-.31-.3-.47-.71-.47-1.23v-36.71h-13.76c-.52,0-.93-.15-1.25-.45-.31-.3-.47-.71-.47-1.23s.16-.93.47-1.25.73-.47,1.25-.47h30.95c.52,0,.93.16,1.23.47.3.31.45.73.45,1.25s-.15.93-.45,1.23-.71.45-1.23.45h-13.79v36.71c0,.5-.16.9-.47,1.21-.31.31-.72.47-1.21.47Z"/>
    <path class="st0" d="M1072.46,230.5c-.54,0-.96-.15-1.26-.45-.3-.3-.45-.72-.45-1.26v-38.33c0-.54.15-.96.45-1.26.3-.3.72-.45,1.26-.45s.93.15,1.23.45.45.72.45,1.26v38.33c0,.54-.15.96-.45,1.26s-.71.45-1.23.45Z"/>
    <path class="st0" d="M1098.88,230.5c-4.68,0-8.1-1.08-10.26-3.24-2.16-2.16-3.24-5.58-3.24-10.26v-14.76c0-4.73,1.08-8.16,3.24-10.31,2.16-2.15,5.56-3.2,10.2-3.16h7.83c4.68,0,8.1,1.08,10.25,3.24,2.15,2.16,3.22,5.58,3.22,10.26v14.73c0,4.68-1.07,8.1-3.22,10.26-2.15,2.16-5.56,3.24-10.25,3.24h-7.77ZM1098.88,227.1h7.77c2.48,0,4.46-.32,5.92-.97,1.47-.65,2.53-1.7,3.17-3.17.65-1.47.97-3.45.97-5.96v-14.73c0-2.48-.32-4.45-.97-5.92-.65-1.47-1.7-2.53-3.17-3.19-1.47-.66-3.44-.99-5.92-.99h-7.83c-2.48-.02-4.45.29-5.91.92s-2.51,1.69-3.16,3.17c-.65,1.48-.97,3.47-.97,5.97v14.76c0,2.5.32,4.49.97,5.96.65,1.47,1.7,2.53,3.17,3.17,1.47.65,3.45.97,5.96.97Z"/>
    <path class="st0" d="M1133.06,230.5c-1.14,0-1.71-.57-1.71-1.72v-38.29c0-1.14.57-1.72,1.71-1.72.6,0,1.19.33,1.75,1l27.42,35.22h-.78v-34.51c0-1.14.57-1.72,1.71-1.72s1.68.57,1.68,1.72v38.29c0,1.15-.56,1.72-1.68,1.72-.63,0-1.21-.33-1.75-1l-27.45-35.22h.78v34.51c0,1.15-.56,1.72-1.68,1.72Z"/>
  </g>
</svg>